<svg version="1.2" baseProfile="tiny" id="EdgeSVG_lxTja" x="0px" y="0px" width="116.373px" height="90.453px" viewBox="0 0 116.373 90.453" xmlns:xlink="http://www.w3.org/1999/xlink" xmlns="http://www.w3.org/2000/svg">
  <linearGradient id="SVGID_3_" gradientUnits="userSpaceOnUse" x1="92.1826" y1="44.2607" x2="92.1826" y2="77.2002">
    <stop offset="0.0184" style="stop-color:#FFFFFF;stop-opacity:0"/>
    <stop offset="0.0429" style="stop-color:#FFFFFF;stop-opacity:0.25"/>
    <stop offset="0.1104" style="stop-color:#FFFFFF;stop-opacity:0"/>
    <stop offset="0.2209" style="stop-color:#FFFFFF;stop-opacity:0.5"/>
    <stop offset="0.319" style="stop-color:#FFFFFF;stop-opacity:0.2"/>
    <stop offset="0.6626" style="stop-color:#000000;stop-opacity:0.55"/>
    <stop offset="0.8589" style="stop-color:#000000;stop-opacity:0.65"/>
    <stop offset="0.9693" style="stop-color:#000000;stop-opacity:0.6"/>
    <stop offset="0.9939" style="stop-color:#000000;stop-opacity:0.7"/>
  </linearGradient>
  <path fill="url(#SVGID_3_)" d="M94.188,44.261c0,0-1.183,0.312-2.006,0.312s-2.006-0.312-2.006-0.312V77.2&#xD;&#xA;&#x9;&#x9;c0,0,1.465-0.312,2.006-0.312c0.539,0,2.006,0.312,2.006,0.312V44.261z"/>
  <linearGradient id="SVGID_4_" gradientUnits="userSpaceOnUse" x1="111.9395" y1="46.4229" x2="111.9395" y2="74.4209">
    <stop offset="0.0184" style="stop-color:#FFFFFF;stop-opacity:0"/>
    <stop offset="0.0429" style="stop-color:#FFFFFF;stop-opacity:0.25"/>
    <stop offset="0.1104" style="stop-color:#FFFFFF;stop-opacity:0"/>
    <stop offset="0.2209" style="stop-color:#FFFFFF;stop-opacity:0.5"/>
    <stop offset="0.319" style="stop-color:#FFFFFF;stop-opacity:0.2"/>
    <stop offset="0.6626" style="stop-color:#000000;stop-opacity:0.55"/>
    <stop offset="0.8589" style="stop-color:#000000;stop-opacity:0.65"/>
    <stop offset="0.9693" style="stop-color:#000000;stop-opacity:0.6"/>
    <stop offset="0.9939" style="stop-color:#000000;stop-opacity:0.7"/>
  </linearGradient>
  <rect x="109.005" y="46.423" fill="url(#SVGID_4_)" width="5.868" height="27.998"/>
  <linearGradient id="SVGID_5_" gradientUnits="userSpaceOnUse" x1="72.4238" y1="46.4229" x2="72.4238" y2="74.4209">
    <stop offset="0.0184" style="stop-color:#FFFFFF;stop-opacity:0"/>
    <stop offset="0.0429" style="stop-color:#FFFFFF;stop-opacity:0.25"/>
    <stop offset="0.1104" style="stop-color:#FFFFFF;stop-opacity:0"/>
    <stop offset="0.2209" style="stop-color:#FFFFFF;stop-opacity:0.5"/>
    <stop offset="0.319" style="stop-color:#FFFFFF;stop-opacity:0.2"/>
    <stop offset="0.6626" style="stop-color:#000000;stop-opacity:0.55"/>
    <stop offset="0.8589" style="stop-color:#000000;stop-opacity:0.65"/>
    <stop offset="0.9693" style="stop-color:#000000;stop-opacity:0.6"/>
    <stop offset="0.9939" style="stop-color:#000000;stop-opacity:0.7"/>
  </linearGradient>
  <rect x="69.492" y="46.423" fill="url(#SVGID_5_)" width="5.864" height="27.998"/>
  <linearGradient id="SVGID_6_" gradientUnits="userSpaceOnUse" x1="101.5967" y1="45.1885" x2="101.5967" y2="75.6553">
    <stop offset="0.0184" style="stop-color:#FFFFFF;stop-opacity:0"/>
    <stop offset="0.0429" style="stop-color:#FFFFFF;stop-opacity:0.25"/>
    <stop offset="0.1104" style="stop-color:#FFFFFF;stop-opacity:0"/>
    <stop offset="0.2209" style="stop-color:#FFFFFF;stop-opacity:0.5"/>
    <stop offset="0.319" style="stop-color:#FFFFFF;stop-opacity:0.2"/>
    <stop offset="0.6626" style="stop-color:#000000;stop-opacity:0.55"/>
    <stop offset="0.8589" style="stop-color:#000000;stop-opacity:0.65"/>
    <stop offset="0.9693" style="stop-color:#000000;stop-opacity:0.6"/>
    <stop offset="0.9939" style="stop-color:#000000;stop-opacity:0.7"/>
  </linearGradient>
  <path fill="url(#SVGID_6_)" d="M96.966,45.188c0,0-1.266,0.948-2.777,1.488v28.669l3.087,0.31h11.729V45.188H96.966z"/>
  <linearGradient id="SVGID_7_" gradientUnits="userSpaceOnUse" x1="82.7666" y1="45.1885" x2="82.7666" y2="75.6553">
    <stop offset="0.0184" style="stop-color:#FFFFFF;stop-opacity:0"/>
    <stop offset="0.0429" style="stop-color:#FFFFFF;stop-opacity:0.25"/>
    <stop offset="0.1104" style="stop-color:#FFFFFF;stop-opacity:0"/>
    <stop offset="0.2209" style="stop-color:#FFFFFF;stop-opacity:0.5"/>
    <stop offset="0.319" style="stop-color:#FFFFFF;stop-opacity:0.2"/>
    <stop offset="0.6626" style="stop-color:#000000;stop-opacity:0.55"/>
    <stop offset="0.8589" style="stop-color:#000000;stop-opacity:0.65"/>
    <stop offset="0.9693" style="stop-color:#000000;stop-opacity:0.6"/>
    <stop offset="0.9939" style="stop-color:#000000;stop-opacity:0.7"/>
  </linearGradient>
  <path fill="url(#SVGID_7_)" d="M75.356,45.188v30.467h11.731l3.089-0.31V46.56c-1.373-0.55-2.471-1.371-2.471-1.371H75.356z"/>
  <linearGradient id="SVGID_8_" gradientUnits="userSpaceOnUse" x1="87.0879" y1="80.4414" x2="97.2754" y2="80.4414">
    <stop offset="0.0123" style="stop-color:#000000;stop-opacity:0.3"/>
    <stop offset="0.0736" style="stop-color:#000000;stop-opacity:0.2"/>
    <stop offset="0.1227" style="stop-color:#000000;stop-opacity:0.35"/>
    <stop offset="0.1634" style="stop-color:#393939;stop-opacity:0.3755"/>
    <stop offset="0.2177" style="stop-color:#7F7F7F;stop-opacity:0.4095"/>
    <stop offset="0.2666" style="stop-color:#B6B6B6;stop-opacity:0.4402"/>
    <stop offset="0.3085" style="stop-color:#DEDEDE;stop-opacity:0.4665"/>
    <stop offset="0.3417" style="stop-color:#F6F6F6;stop-opacity:0.4873"/>
    <stop offset="0.362" style="stop-color:#FFFFFF;stop-opacity:0.5"/>
    <stop offset="0.4042" style="stop-color:#F6F6F6;stop-opacity:0.4873"/>
    <stop offset="0.473" style="stop-color:#DEDEDE;stop-opacity:0.4665"/>
    <stop offset="0.56" style="stop-color:#B6B6B6;stop-opacity:0.4402"/>
    <stop offset="0.6617" style="stop-color:#7F7F7F;stop-opacity:0.4095"/>
    <stop offset="0.7743" style="stop-color:#393939;stop-opacity:0.3755"/>
    <stop offset="0.8589" style="stop-color:#000000;stop-opacity:0.35"/>
    <stop offset="0.9325" style="stop-color:#000000;stop-opacity:0.2"/>
    <stop offset="0.9755" style="stop-color:#000000;stop-opacity:0.35"/>
  </linearGradient>
  <path fill="url(#SVGID_8_)" d="M87.088,85.536v-9.881l3.089-0.31V77.2c0,0,1.413-0.312,2.006-0.312&#xD;&#xA;&#x9;&#x9;c0.591,0,2.006,0.312,2.006,0.312v-1.854l3.087,0.31v9.881H87.088z"/>
  <linearGradient id="SVGID_9_" gradientUnits="userSpaceOnUse" x1="88.9404" y1="85.998" x2="95.4229" y2="85.998">
    <stop offset="0.0123" style="stop-color:#000000;stop-opacity:0.3"/>
    <stop offset="0.0736" style="stop-color:#000000;stop-opacity:0.2"/>
    <stop offset="0.1227" style="stop-color:#000000;stop-opacity:0.35"/>
    <stop offset="0.1634" style="stop-color:#393939;stop-opacity:0.3755"/>
    <stop offset="0.2177" style="stop-color:#7F7F7F;stop-opacity:0.4095"/>
    <stop offset="0.2666" style="stop-color:#B6B6B6;stop-opacity:0.4402"/>
    <stop offset="0.3085" style="stop-color:#DEDEDE;stop-opacity:0.4665"/>
    <stop offset="0.3417" style="stop-color:#F6F6F6;stop-opacity:0.4873"/>
    <stop offset="0.362" style="stop-color:#FFFFFF;stop-opacity:0.5"/>
    <stop offset="0.4042" style="stop-color:#F6F6F6;stop-opacity:0.4873"/>
    <stop offset="0.473" style="stop-color:#DEDEDE;stop-opacity:0.4665"/>
    <stop offset="0.56" style="stop-color:#B6B6B6;stop-opacity:0.4402"/>
    <stop offset="0.6617" style="stop-color:#7F7F7F;stop-opacity:0.4095"/>
    <stop offset="0.7743" style="stop-color:#393939;stop-opacity:0.3755"/>
    <stop offset="0.8589" style="stop-color:#000000;stop-opacity:0.35"/>
    <stop offset="0.9325" style="stop-color:#000000;stop-opacity:0.2"/>
    <stop offset="0.9755" style="stop-color:#000000;stop-opacity:0.35"/>
  </linearGradient>
  <rect x="88.94" y="85.536" fill="url(#SVGID_9_)" width="6.482" height="0.924"/>
  <linearGradient id="SVGID_10_" gradientUnits="userSpaceOnUse" x1="87.0879" y1="86.9219" x2="97.2754" y2="86.9219">
    <stop offset="0.0123" style="stop-color:#000000;stop-opacity:0.3"/>
    <stop offset="0.0736" style="stop-color:#000000;stop-opacity:0.2"/>
    <stop offset="0.1227" style="stop-color:#000000;stop-opacity:0.35"/>
    <stop offset="0.1634" style="stop-color:#393939;stop-opacity:0.3755"/>
    <stop offset="0.2177" style="stop-color:#7F7F7F;stop-opacity:0.4095"/>
    <stop offset="0.2666" style="stop-color:#B6B6B6;stop-opacity:0.4402"/>
    <stop offset="0.3085" style="stop-color:#DEDEDE;stop-opacity:0.4665"/>
    <stop offset="0.3417" style="stop-color:#F6F6F6;stop-opacity:0.4873"/>
    <stop offset="0.362" style="stop-color:#FFFFFF;stop-opacity:0.5"/>
    <stop offset="0.4042" style="stop-color:#F6F6F6;stop-opacity:0.4873"/>
    <stop offset="0.473" style="stop-color:#DEDEDE;stop-opacity:0.4665"/>
    <stop offset="0.56" style="stop-color:#B6B6B6;stop-opacity:0.4402"/>
    <stop offset="0.6617" style="stop-color:#7F7F7F;stop-opacity:0.4095"/>
    <stop offset="0.7743" style="stop-color:#393939;stop-opacity:0.3755"/>
    <stop offset="0.8589" style="stop-color:#000000;stop-opacity:0.35"/>
    <stop offset="0.9325" style="stop-color:#000000;stop-opacity:0.2"/>
    <stop offset="0.9755" style="stop-color:#000000;stop-opacity:0.35"/>
  </linearGradient>
  <rect x="87.088" y="86.46" fill="url(#SVGID_10_)" width="10.188" height="0.925"/>
  <linearGradient id="SVGID_11_" gradientUnits="userSpaceOnUse" x1="92.1816" y1="75.3457" x2="92.1816" y2="81.2119">
    <stop offset="0" style="stop-color:#000000;stop-opacity:0.5"/>
    <stop offset="1" style="stop-color:#000000;stop-opacity:0.35"/>
  </linearGradient>
  <path fill="url(#SVGID_11_)" d="M87.088,81.212v-5.557l3.089-0.31V77.2c0,0,1.413-0.312,2.006-0.312&#xD;&#xA;&#x9;&#x9;c0.591,0,2.006,0.312,2.006,0.312v-1.854l3.087,0.31v5.557c0,0-1.775-0.926-3.087-0.926v0.926c0,0-1.082-0.308-2.006-0.308&#xD;&#xA;&#x9;&#x9;c-0.927,0-2.006,0.308-2.006,0.308l-0.002-0.926C88.632,80.286,87.088,81.212,87.088,81.212z"/>
  <linearGradient id="SVGID_12_" gradientUnits="userSpaceOnUse" x1="92.1816" y1="85.5361" x2="92.1816" y2="86.46">
    <stop offset="0" style="stop-color:#000000;stop-opacity:0.5"/>
    <stop offset="1" style="stop-color:#000000;stop-opacity:0.35"/>
  </linearGradient>
  <path fill="url(#SVGID_12_)" d="M88.94,85.536h6.482v0.924c0,0-0.771-0.461-3.24-0.461c-2.472,0-3.242,0.461-3.242,0.461V85.536z"/>
  <linearGradient id="SVGID_13_" gradientUnits="userSpaceOnUse" x1="92.1816" y1="85.2236" x2="92.1816" y2="85.5361">
    <stop offset="0" style="stop-color:#000000;stop-opacity:0.35"/>
    <stop offset="1" style="stop-color:#000000;stop-opacity:0.25"/>
  </linearGradient>
  <rect x="87.088" y="85.224" fill="url(#SVGID_13_)" width="10.188" height="0.313"/>
  <linearGradient id="SVGID_14_" gradientUnits="userSpaceOnUse" x1="87.0879" y1="86.6152" x2="97.2754" y2="86.6152">
    <stop offset="0" style="stop-color:#FFFFFF;stop-opacity:0.2"/>
    <stop offset="0.546" style="stop-color:#FFFFFF;stop-opacity:0.35"/>
    <stop offset="1" style="stop-color:#FFFFFF;stop-opacity:0.2"/>
  </linearGradient>
  <rect x="87.088" y="86.46" fill="url(#SVGID_14_)" width="10.188" height="0.311"/>
  <linearGradient id="SVGID_15_" gradientUnits="userSpaceOnUse" x1="92.1816" y1="87.3848" x2="92.1816" y2="88.9297">
    <stop offset="0" style="stop-color:#000000;stop-opacity:0.5"/>
    <stop offset="1" style="stop-color:#000000;stop-opacity:0.35"/>
  </linearGradient>
  <path fill="url(#SVGID_15_)" d="M97.275,87.385c0,0-1.697,1.545-5.093,1.545s-5.095-1.545-5.095-1.545H97.275z"/>
  <linearGradient id="SVGID_16_" gradientUnits="userSpaceOnUse" x1="87.0879" y1="88.1572" x2="97.2754" y2="88.1572">
    <stop offset="0.092" style="stop-color:#000000;stop-opacity:0.2"/>
    <stop offset="0.4785" style="stop-color:#000000;stop-opacity:0"/>
    <stop offset="0.8896" style="stop-color:#000000;stop-opacity:0.2"/>
  </linearGradient>
  <path fill="url(#SVGID_16_)" d="M97.275,87.385c0,0-1.697,1.545-5.093,1.545s-5.095-1.545-5.095-1.545H97.275z"/>
  <linearGradient id="SVGID_17_" gradientUnits="userSpaceOnUse" x1="90.1768" y1="60.7305" x2="94.1885" y2="60.7305">
    <stop offset="0.0552" style="stop-color:#000000;stop-opacity:0.25"/>
    <stop offset="0.1595" style="stop-color:#000000;stop-opacity:0"/>
    <stop offset="0.8405" style="stop-color:#000000;stop-opacity:0.12"/>
    <stop offset="0.9264" style="stop-color:#000000;stop-opacity:0.3"/>
  </linearGradient>
  <path fill="url(#SVGID_17_)" d="M94.188,44.261c0,0-1.183,0.312-2.006,0.312s-2.006-0.312-2.006-0.312V77.2&#xD;&#xA;&#x9;&#x9;c0,0,1.465-0.312,2.006-0.312c0.539,0,2.006,0.312,2.006,0.312V44.261z"/>
  <linearGradient id="SVGID_18_" gradientUnits="userSpaceOnUse" x1="109.0049" y1="60.4219" x2="114.873" y2="60.4219">
    <stop offset="0" style="stop-color:#000000;stop-opacity:0.45"/>
    <stop offset="0.2515" style="stop-color:#000000;stop-opacity:0.05"/>
    <stop offset="0.8773" style="stop-color:#000000;stop-opacity:0.12"/>
    <stop offset="0.9387" style="stop-color:#000000;stop-opacity:0.3"/>
  </linearGradient>
  <rect x="109.005" y="46.423" fill="url(#SVGID_18_)" width="5.868" height="27.998"/>
  <linearGradient id="SVGID_19_" gradientUnits="userSpaceOnUse" x1="69.4922" y1="60.4219" x2="75.3564" y2="60.4219">
    <stop offset="0.0184" style="stop-color:#000000;stop-opacity:0.25"/>
    <stop offset="0.0859" style="stop-color:#000000;stop-opacity:0"/>
    <stop offset="0.8344" style="stop-color:#000000;stop-opacity:0.12"/>
    <stop offset="1" style="stop-color:#000000;stop-opacity:0.45"/>
  </linearGradient>
  <rect x="69.492" y="46.423" fill="url(#SVGID_19_)" width="5.864" height="27.998"/>
  <linearGradient id="SVGID_20_" gradientUnits="userSpaceOnUse" x1="94.1885" y1="60.4219" x2="109.0049" y2="60.4219">
    <stop offset="0" style="stop-color:#000000;stop-opacity:0.4"/>
    <stop offset="0.1472" style="stop-color:#000000;stop-opacity:0.05"/>
    <stop offset="0.9448" style="stop-color:#000000;stop-opacity:0.12"/>
    <stop offset="0.9755" style="stop-color:#000000;stop-opacity:0.3"/>
  </linearGradient>
  <path fill="url(#SVGID_20_)" d="M96.966,45.188c0,0-1.266,0.948-2.777,1.488v28.669l3.087,0.31h11.729V45.188H96.966z"/>
  <linearGradient id="SVGID_21_" gradientUnits="userSpaceOnUse" x1="75.3564" y1="60.4219" x2="90.1768" y2="60.4219">
    <stop offset="0.0184" style="stop-color:#000000;stop-opacity:0.25"/>
    <stop offset="0.0491" style="stop-color:#000000;stop-opacity:0"/>
    <stop offset="0.865" style="stop-color:#000000;stop-opacity:0.12"/>
    <stop offset="1" style="stop-color:#000000;stop-opacity:0.45"/>
  </linearGradient>
  <path fill="url(#SVGID_21_)" d="M75.356,45.188v30.467h11.731l3.089-0.31V46.56c-1.373-0.55-2.471-1.371-2.471-1.371H75.356z"/>
  <g>
    <linearGradient id="SVGID_22_" gradientUnits="userSpaceOnUse" x1="86.4707" y1="15.3916" x2="86.4707" y2="16.9365">
      <stop offset="0.0613" style="stop-color:#FFFFFF;stop-opacity:0.45"/>
      <stop offset="0.1411" style="stop-color:#FFFFFF;stop-opacity:0"/>
      <stop offset="0.2454" style="stop-color:#231F20;stop-opacity:0"/>
      <stop offset="0.8466" style="stop-color:#000000;stop-opacity:0"/>
      <stop offset="0.9264" style="stop-color:#000000;stop-opacity:0.45"/>
      <stop offset="0.9816" style="stop-color:#000000;stop-opacity:0.8"/>
      <stop offset="1" style="stop-color:#231F20;stop-opacity:0.051"/>
    </linearGradient>
    <rect x="84.309" y="15.392" fill="url(#SVGID_22_)" width="4.323" height="1.545"/>
    <linearGradient id="SVGID_23_" gradientUnits="userSpaceOnUse" x1="97.8926" y1="15.3916" x2="97.8926" y2="16.9365">
      <stop offset="0.0613" style="stop-color:#FFFFFF;stop-opacity:0.45"/>
      <stop offset="0.1411" style="stop-color:#FFFFFF;stop-opacity:0"/>
      <stop offset="0.2454" style="stop-color:#231F20;stop-opacity:0"/>
      <stop offset="0.8466" style="stop-color:#000000;stop-opacity:0"/>
      <stop offset="0.9264" style="stop-color:#000000;stop-opacity:0.45"/>
      <stop offset="0.9816" style="stop-color:#000000;stop-opacity:0.8"/>
      <stop offset="1" style="stop-color:#231F20;stop-opacity:0.051"/>
    </linearGradient>
    <rect x="95.731" y="15.392" fill="url(#SVGID_23_)" width="4.323" height="1.545"/>
  </g>
  <g>
    <linearGradient id="SVGID_24_" gradientUnits="userSpaceOnUse" x1="84.3086" y1="16.1641" x2="88.6318" y2="16.1641">
      <stop offset="0" style="stop-color:#000000;stop-opacity:0"/>
      <stop offset="0.0368" style="stop-color:#FFFFFF;stop-opacity:0.2"/>
      <stop offset="0.2025" style="stop-color:#FFFFFF;stop-opacity:0.1"/>
      <stop offset="0.2883" style="stop-color:#000000;stop-opacity:0.12"/>
      <stop offset="0.7055" style="stop-color:#000000;stop-opacity:0"/>
      <stop offset="0.816" style="stop-color:#000000;stop-opacity:0.3"/>
      <stop offset="0.9693" style="stop-color:#000000;stop-opacity:0.2"/>
      <stop offset="1" style="stop-color:#000000;stop-opacity:0.3"/>
    </linearGradient>
    <rect x="84.309" y="15.392" fill="url(#SVGID_24_)" width="4.323" height="1.545"/>
    <linearGradient id="SVGID_25_" gradientUnits="userSpaceOnUse" x1="95.7314" y1="16.1641" x2="100.0547" y2="16.1641">
      <stop offset="0" style="stop-color:#000000;stop-opacity:0"/>
      <stop offset="0.0368" style="stop-color:#FFFFFF;stop-opacity:0.2"/>
      <stop offset="0.2025" style="stop-color:#FFFFFF;stop-opacity:0.1"/>
      <stop offset="0.2883" style="stop-color:#000000;stop-opacity:0.12"/>
      <stop offset="0.7055" style="stop-color:#000000;stop-opacity:0"/>
      <stop offset="0.816" style="stop-color:#000000;stop-opacity:0.3"/>
      <stop offset="0.9693" style="stop-color:#000000;stop-opacity:0.2"/>
      <stop offset="1" style="stop-color:#000000;stop-opacity:0.3"/>
    </linearGradient>
    <rect x="95.731" y="15.392" fill="url(#SVGID_25_)" width="4.323" height="1.545"/>
  </g>
  <linearGradient id="SVGID_26_" gradientUnits="userSpaceOnUse" x1="87.7061" y1="31.0342" x2="96.9658" y2="31.0342">
    <stop offset="0" style="stop-color:#000000;stop-opacity:0.25"/>
    <stop offset="0.0798" style="stop-color:#000000;stop-opacity:0.15"/>
    <stop offset="0.3804" style="stop-color:#000000;stop-opacity:0.2"/>
    <stop offset="0.4785" style="stop-color:#000000;stop-opacity:0.1"/>
    <stop offset="0.5706" style="stop-color:#000000;stop-opacity:0.2"/>
    <stop offset="0.9202" style="stop-color:#000000;stop-opacity:0.15"/>
    <stop offset="1" style="stop-color:#000000;stop-opacity:0.25"/>
  </linearGradient>
  <path fill="url(#SVGID_26_)" d="M95.731,16.937v-1.545h-7.1v1.545h-0.926v28.252c0,0,1.098,0.821,2.471,1.371v-2.299&#xD;&#xA;&#x9;&#x9;c0,0,1.493,0.312,2.084,0.312c0.592,0,1.928-0.312,1.928-0.312v2.416c1.512-0.54,2.777-1.488,2.777-1.488V16.937H95.731z"/>
  <linearGradient id="SVGID_27_" gradientUnits="userSpaceOnUse" x1="80.6045" y1="13.6943" x2="103.7588" y2="13.6943">
    <stop offset="0.0123" style="stop-color:#000000;stop-opacity:0.3"/>
    <stop offset="0.0736" style="stop-color:#000000;stop-opacity:0.2"/>
    <stop offset="0.1227" style="stop-color:#000000;stop-opacity:0.35"/>
    <stop offset="0.1634" style="stop-color:#393939;stop-opacity:0.3755"/>
    <stop offset="0.2177" style="stop-color:#7F7F7F;stop-opacity:0.4095"/>
    <stop offset="0.2666" style="stop-color:#B6B6B6;stop-opacity:0.4402"/>
    <stop offset="0.3085" style="stop-color:#DEDEDE;stop-opacity:0.4665"/>
    <stop offset="0.3417" style="stop-color:#F6F6F6;stop-opacity:0.4873"/>
    <stop offset="0.362" style="stop-color:#FFFFFF;stop-opacity:0.5"/>
    <stop offset="0.4042" style="stop-color:#F6F6F6;stop-opacity:0.4873"/>
    <stop offset="0.473" style="stop-color:#DEDEDE;stop-opacity:0.4665"/>
    <stop offset="0.56" style="stop-color:#B6B6B6;stop-opacity:0.4402"/>
    <stop offset="0.6617" style="stop-color:#7F7F7F;stop-opacity:0.4095"/>
    <stop offset="0.7743" style="stop-color:#393939;stop-opacity:0.3755"/>
    <stop offset="0.8589" style="stop-color:#000000;stop-opacity:0.35"/>
    <stop offset="0.9325" style="stop-color:#000000;stop-opacity:0.2"/>
    <stop offset="0.9755" style="stop-color:#000000;stop-opacity:0.35"/>
  </linearGradient>
  <rect x="80.604" y="11.997" fill="url(#SVGID_27_)" width="23.154" height="3.395"/>
  <linearGradient id="SVGID_28_" gradientUnits="userSpaceOnUse" x1="92.1816" y1="11.9971" x2="92.1816" y2="13.8467">
    <stop offset="0" style="stop-color:#000000;stop-opacity:0.35"/>
    <stop offset="1" style="stop-color:#000000;stop-opacity:0.25"/>
  </linearGradient>
  <path fill="url(#SVGID_28_)" d="M80.604,11.997h23.154v1.85c0,0-0.346-0.147-1.388-0.329c-0.141-0.027-0.294-0.359-0.463-0.386&#xD;&#xA;&#x9;&#x9;c-0.491-0.074-1.103-0.15-1.854-0.221c-0.149-0.014-0.301,0.28-0.46,0.267c-0.688-0.057-1.484-0.109-2.396-0.153&#xD;&#xA;&#x9;&#x9;c-0.152-0.005-0.306-0.32-0.463-0.325c-0.745-0.032-1.566-0.056-2.469-0.07c-0.151-0.002-0.306,0.306-0.462,0.302&#xD;&#xA;&#x9;&#x9;c-0.517-0.007-3.002-0.003-3.63,0.007c-0.13,0.004-0.259-0.306-0.386-0.302c-0.936,0.018-1.78,0.045-2.544,0.078&#xD;&#xA;&#x9;&#x9;c-0.157,0.007-0.311,0.322-0.461,0.331c-0.957,0.05-1.775,0.11-2.476,0.174c-0.1,0.011-0.202-0.288-0.299-0.277&#xD;&#xA;&#x9;&#x9;c-0.774,0.078-1.39,0.16-1.87,0.24c-0.134,0.021-0.259,0.354-0.373,0.376c-0.868,0.16-1.162,0.289-1.162,0.289V11.997z"/>
  <linearGradient id="SVGID_29_" gradientUnits="userSpaceOnUse" x1="92.1816" y1="15.3916" x2="92.1816" y2="19.4053">
    <stop offset="0" style="stop-color:#000000;stop-opacity:0.4"/>
    <stop offset="1" style="stop-color:#000000;stop-opacity:0.25"/>
  </linearGradient>
  <path fill="url(#SVGID_29_)" d="M84.329,16.258c0,0,1.023-0.25,1.216-0.25c0.193,0,1.929,0,2.161,0c0.23,0,0.926,0.313,0.926,0.313&#xD;&#xA;&#x9;&#x9;v0.616h-0.926v2.469c0,0,3.591-1.699,4.555-1.699s4.705,1.699,4.705,1.699v-2.469h-1.234V16.32c0,0,1.004-0.313,1.234-0.313&#xD;&#xA;&#x9;&#x9;c0.234,0,2.163,0,2.163,0l0.926,0.313v-0.929H84.309L84.329,16.258z"/>
  <linearGradient id="SVGID_30_" gradientUnits="userSpaceOnUse" x1="80.6045" y1="15.2383" x2="103.7588" y2="15.2383">
    <stop offset="0" style="stop-color:#000000;stop-opacity:0.35"/>
    <stop offset="1" style="stop-color:#000000;stop-opacity:0.25"/>
  </linearGradient>
  <rect x="80.604" y="15.086" fill="url(#SVGID_30_)" width="23.154" height="0.306"/>
  <linearGradient id="SVGID_31_" gradientUnits="userSpaceOnUse" x1="76.8994" y1="11.3789" x2="108.3906" y2="11.3789">
    <stop offset="0" style="stop-color:#000000;stop-opacity:0.2"/>
    <stop offset="0.0184" style="stop-color:#FFFFFF;stop-opacity:0.35"/>
    <stop offset="0.0491" style="stop-color:#FFFFFF;stop-opacity:0.1"/>
    <stop offset="0.0675" style="stop-color:#000000;stop-opacity:0.35"/>
    <stop offset="0.092" style="stop-color:#000000;stop-opacity:0.2"/>
    <stop offset="0.0982" style="stop-color:#FFFFFF;stop-opacity:0.35"/>
    <stop offset="0.1534" style="stop-color:#FFFFFF;stop-opacity:0.2"/>
    <stop offset="0.2086" style="stop-color:#000000;stop-opacity:0.35"/>
    <stop offset="0.2699" style="stop-color:#070505;stop-opacity:0.1"/>
    <stop offset="0.3129" style="stop-color:#0E0A0B;stop-opacity:0.12"/>
    <stop offset="0.3313" style="stop-color:#FFFFFF;stop-opacity:0.35"/>
    <stop offset="0.4233" style="stop-color:#FFFFFF;stop-opacity:0"/>
    <stop offset="0.4601" style="stop-color:#000000;stop-opacity:0"/>
    <stop offset="0.4785" style="stop-color:#0B0808;stop-opacity:0.15"/>
    <stop offset="0.5951" style="stop-color:#191516;stop-opacity:0.15"/>
    <stop offset="0.6074" style="stop-color:#1E1A1C;stop-opacity:0.25"/>
    <stop offset="0.6442" style="stop-color:#000000;stop-opacity:0.25"/>
    <stop offset="0.6626" style="stop-color:#FFFFFF;stop-opacity:0.1"/>
    <stop offset="0.7485" style="stop-color:#FFFFFF;stop-opacity:0"/>
    <stop offset="0.7669" style="stop-color:#000000;stop-opacity:0.3"/>
    <stop offset="0.8344" style="stop-color:#000000;stop-opacity:0.2515"/>
    <stop offset="0.8466" style="stop-color:#000000;stop-opacity:0.1"/>
    <stop offset="0.9018" style="stop-color:#000000;stop-opacity:0.1"/>
    <stop offset="0.9202" style="stop-color:#FFFFFF;stop-opacity:0.1"/>
    <stop offset="0.9571" style="stop-color:#FFFFFF;stop-opacity:0.1"/>
    <stop offset="0.9755" style="stop-color:#000000;stop-opacity:0.2736"/>
    <stop offset="0.9877" style="stop-color:#FFFFFF;stop-opacity:0.1"/>
  </linearGradient>
  <rect x="76.899" y="10.76" fill="url(#SVGID_31_)" width="31.491" height="1.237"/>
  <linearGradient id="SVGID_32_" gradientUnits="userSpaceOnUse" x1="76.8994" y1="11.0684" x2="108.3906" y2="11.0684">
    <stop offset="0" style="stop-color:#FFFFFF;stop-opacity:0.2"/>
    <stop offset="0.546" style="stop-color:#FFFFFF;stop-opacity:0.35"/>
    <stop offset="1" style="stop-color:#FFFFFF;stop-opacity:0.2"/>
  </linearGradient>
  <rect x="76.899" y="10.76" fill="url(#SVGID_32_)" width="31.491" height="0.618"/>
  <linearGradient id="SVGID_33_" gradientUnits="userSpaceOnUse" x1="87.0879" y1="6.1299" x2="96.9658" y2="6.1299">
    <stop offset="0.0123" style="stop-color:#000000;stop-opacity:0.3"/>
    <stop offset="0.0736" style="stop-color:#000000;stop-opacity:0.2"/>
    <stop offset="0.1227" style="stop-color:#000000;stop-opacity:0.35"/>
    <stop offset="0.1634" style="stop-color:#393939;stop-opacity:0.3755"/>
    <stop offset="0.2177" style="stop-color:#7F7F7F;stop-opacity:0.4095"/>
    <stop offset="0.2666" style="stop-color:#B6B6B6;stop-opacity:0.4402"/>
    <stop offset="0.3085" style="stop-color:#DEDEDE;stop-opacity:0.4665"/>
    <stop offset="0.3417" style="stop-color:#F6F6F6;stop-opacity:0.4873"/>
    <stop offset="0.362" style="stop-color:#FFFFFF;stop-opacity:0.5"/>
    <stop offset="0.4042" style="stop-color:#F6F6F6;stop-opacity:0.4873"/>
    <stop offset="0.473" style="stop-color:#DEDEDE;stop-opacity:0.4665"/>
    <stop offset="0.56" style="stop-color:#B6B6B6;stop-opacity:0.4402"/>
    <stop offset="0.6617" style="stop-color:#7F7F7F;stop-opacity:0.4095"/>
    <stop offset="0.7743" style="stop-color:#393939;stop-opacity:0.3755"/>
    <stop offset="0.8589" style="stop-color:#000000;stop-opacity:0.35"/>
    <stop offset="0.9325" style="stop-color:#000000;stop-opacity:0.2"/>
    <stop offset="0.9755" style="stop-color:#000000;stop-opacity:0.35"/>
  </linearGradient>
  <path fill="url(#SVGID_33_)" d="M92.336,1.5c0.811,0,1.659,0.21,2.328,0.463c1.257,0.474,2.302,0.977,2.302,1.391&#xD;&#xA;&#x9;&#x9;c0,0.616,0,7.406,0,7.406h-9.878c0,0,0-6.688,0-7.406c0-0.271,0.772-0.664,2.701-1.47C90.716,1.5,91.296,1.5,92.336,1.5z"/>
  <linearGradient id="SVGID_34_" gradientUnits="userSpaceOnUse" x1="92.0273" y1="1.5" x2="92.0273" y2="10.7598">
    <stop offset="0" style="stop-color:#FFFFFF;stop-opacity:0.35"/>
    <stop offset="0.092" style="stop-color:#FFFFFF;stop-opacity:0.45"/>
    <stop offset="0.1595" style="stop-color:#FFFFFF;stop-opacity:0.35"/>
    <stop offset="0.227" style="stop-color:#FFFFFF;stop-opacity:0"/>
    <stop offset="0.2699" style="stop-color:#040303;stop-opacity:0"/>
    <stop offset="0.9509" style="stop-color:#000000;stop-opacity:0.12"/>
    <stop offset="0.9632" style="stop-color:#000000;stop-opacity:0.3"/>
  </linearGradient>
  <path fill="url(#SVGID_34_)" d="M92.336,1.5c0.811,0,1.659,0.21,2.328,0.463c1.257,0.474,2.302,0.977,2.302,1.391&#xD;&#xA;&#x9;&#x9;c0,0.616,0,7.406,0,7.406h-9.878c0,0,0-6.688,0-7.406c0-0.271,0.772-0.664,2.701-1.47C90.716,1.5,91.296,1.5,92.336,1.5z"/>
</svg>