<svg version="1.2" baseProfile="tiny" id="EdgeSVG_lxTja" x="0px" y="0px" width="116.373px" height="90.453px" viewBox="0 0 116.373 90.453" xmlns:xlink="http://www.w3.org/1999/xlink" xmlns="http://www.w3.org/2000/svg">
  <linearGradient id="SVGID_2_" gradientUnits="userSpaceOnUse" x1="0" y1="45.2207" x2="116.3223" y2="45.2207">
    <stop offset="0" style="stop-color:#000000;stop-opacity:0.5"/>
    <stop offset="1" style="stop-color:#000000;stop-opacity:0.5"/>
  </linearGradient>
  <path fill="url(#SVGID_2_)" d="M92.166,90.441c-3.859,0-5.878-1.734-6.096-1.933l-0.49-0.446V77.187H73.866v-1.234h-5.855V45.021&#xD;&#xA;&#x9;&#x9;h5.855v-1.234h12.332V18.413h-3.391v-1.542h-3.7v-2.203c-0.743,1.099-1.972,1.966-3.662,2.19c-0.226,0.029-0.526,0.047-0.892,0.047&#xD;&#xA;&#x9;&#x9;c-3.269,0-14.591-1.598-16.594-2.474c-0.346-0.149-0.838-0.227-1.461-0.227c-1.524,0-3.535,0.468-5.301,0.925&#xD;&#xA;&#x9;&#x9;c-1.302,0.335-10.599,3.255-19.59,6.078C8.707,28.399,7.455,28.742,6.95,28.742H6.623l-0.309-0.138&#xD;&#xA;&#x9;&#x9;c-0.319-0.146-1.068-0.627-0.989-1.904c0.079-1.283,0.924-2.82,2.386-3.277c0.476-0.15,9.729-3.197,19.498-6.622&#xD;&#xA;&#x9;&#x9;c4.701-2.271,8.192-4.51,10.297-6.587c-1.249,0.003-2.6,0.007-4.021,0.011c-3.532,0.01-7.498,0.02-11.401,0.02&#xD;&#xA;&#x9;&#x9;c-6.263,0-10.921-0.028-14.242-0.086c-2.027-0.036-3.597-0.084-4.662-0.144C1.559,9.926,0.027,9.841,0.027,8.283&#xD;&#xA;&#x9;&#x9;c0-0.074-0.004-0.179-0.009-0.306c-0.051-1.475-0.187-5.394,2.695-5.659C4.233,2.178,57.638,0,61.766,0&#xD;&#xA;&#x9;&#x9;c2.155,0,4.766,0.511,7.291,1.006c2.214,0.434,4.305,0.843,5.754,0.843h21.028c1.188,0,2.604,0.501,2.604,2.889v4.511h11.099v4.23&#xD;&#xA;&#x9;&#x9;h-4.315v3.393h-3.7v1.542h-3.083v25.374h12.024v1.234h5.855v30.931h-5.855v1.234H98.753v10.876l-0.49,0.446&#xD;&#xA;&#x9;&#x9;C98.045,88.707,96.026,90.441,92.166,90.441z"/>
</svg>