<svg version="1.2" baseProfile="tiny" viewBox="0 0 116.373 90.453" xmlns:xlink="http://www.w3.org/1999/xlink" xmlns="http://www.w3.org/2000/svg">
<path style="fill:#ffffff;" d="M108.967,46.5209L108.967,45.2871L96.9422,45.2871L96.9422,45.2871L96.9422,16.9129L100.0249,16.9129L100.0249,15.3707L103.7244,15.3707L103.7244,11.9778L108.0395,11.9778L108.0395,10.7476L96.9422,10.7476L96.9422,10.7476C96.9422,10.7476,96.9422,5.9699,96.9422,4.737C96.9422,3.5041,96.5349,3.3477,95.8378,3.3477C92.3396,3.3477,77.5719,3.3477,74.8104,3.3477C71.4926,3.3477,65.6355,1.4988,61.765,1.4988C57.8991,1.4988,4.5095,3.657,2.8511,3.8108C1.1928,3.9646,1.5268,7.5112,1.5268,8.2828C1.5268,8.9187,29.0572,8.7142,40.5746,8.7097C38.6696,12.1976,33.3304,15.5172,27.7852,18.1892C18.0425,21.6047,8.7384,24.6711,8.1577,24.8547C6.9405,25.2364,6.6088,27.0907,6.9405,27.2417C7.2721,27.3937,47.8374,14.4472,50.8224,13.6792C53.8085,12.9058,56.7935,12.2908,58.5601,13.0587C60.3289,13.8321,72.9263,15.68,75.2479,15.3716C77.5684,15.0631,78.4482,13.2143,78.4482,11.9787L80.6069,11.9787L80.6069,15.3716L84.3064,15.3716L84.3064,16.9138L87.6975,16.9138L87.6975,45.288L75.3655,45.288L75.3655,45.288L75.3655,46.5218L69.5108,46.5218L69.5108,74.4528L75.3655,74.4528L75.3655,75.6865L87.0796,75.6865L87.0796,75.6865L87.0796,85.5486L88.9288,85.5486L88.9288,86.4731L87.0796,86.4731L87.0796,87.4002L87.0796,87.4002C87.0796,87.4002,88.7751,88.9424,92.1663,88.9424C95.5585,88.9424,97.2529,87.4002,97.2529,87.4002L97.2529,86.4731L95.4037,86.4731L95.4037,85.5486L97.2529,85.5486L97.2529,75.6865L108.967,75.6865L108.967,74.4528L114.8218,74.4528L114.8218,46.5209L108.967,46.5209L108.967,46.5209M41.9455,8.7097C43.6224,8.7142,44.8094,8.7224,45.2982,8.7441C47.2253,8.8273,48.2017,9.4153,49.1722,9.9317C46.512,11.3283,40.3465,13.6919,33.5759,16.1296C37.8887,13.5508,40.7678,10.8607,41.9455,8.7097M56.4421,9.5862C57.7536,9.0742,59.2234,8.5903,61.2145,8.5903C61.4868,8.5903,61.8418,8.5921,62.2596,8.5948C62.3876,9.711,62.5505,11.0561,62.9031,11.6648C60.1776,11.3826,57.6326,10.7503,56.4421,9.5862M78.4482,10.7476C78.4482,9.8223,74.7022,10.5948,71.9302,11.3618C70.7036,11.7046,68.0619,11.9217,65.2631,11.8231C65.6064,11.3428,65.8753,9.7879,66.0335,8.6464C73.9865,8.7721,87.8255,9.0842,88.4318,9.2063C89.2046,9.3601,89.3174,10.7476,89.3174,10.7476L78.4482,10.7476L78.4482,10.7476Z"/>
</svg>