<svg version="1.2" baseProfile="tiny" viewBox="0 0 116.373 90.453" xmlns:xlink="http://www.w3.org/1999/xlink" xmlns="http://www.w3.org/2000/svg">
<path style="fill:#ffffff;" d="M109.0031,46.4241L109.0031,45.1894L96.9608,45.1894L96.9608,45.1894L96.9608,16.9409L100.0494,16.9409L100.0494,15.396L103.7535,15.396L103.7535,12.0004L108.0779,12.0004L108.0779,10.7639L96.9608,10.7639L96.9608,10.7639C96.9608,10.7639,96.9608,3.9682,96.9608,3.3504C96.9608,2.9406,95.9123,2.4359,94.6555,1.9628C93.9875,1.7087,93.1356,1.4997,92.3257,1.4997C91.2853,1.4997,90.7058,1.4997,89.7794,1.8878C87.8476,2.6901,87.0761,3.0799,87.0761,3.3513C87.0761,4.0749,87.0761,10.7648,87.0761,10.7648L76.5769,10.7648L76.5769,10.7648L76.5769,12.0013L80.5906,12.0013L80.5906,15.3969L84.2971,15.3969L84.2971,16.9418L87.694,16.9418L87.694,45.1894L75.3399,45.1894L75.3399,46.4241L75.3399,46.4241L69.4735,46.4241L69.4735,74.4383L75.3399,74.4383L75.3399,75.673L87.0761,75.673L87.0761,85.5577L88.9288,85.5577L88.9288,86.4839L87.0761,86.4839L87.0761,87.4093C87.0761,87.4093,88.7751,88.9542,92.1732,88.9542C95.569,88.9542,97.2692,87.4093,97.2692,87.4093L97.2692,86.4839L95.4165,86.4839L95.4165,85.5577L97.2692,85.5577L97.2692,75.673L109.0031,75.673L109.0031,74.4383L114.873,74.4383L114.873,46.4241L109.0031,46.4241L109.0031,46.4241Z"/>
</svg>